<?xml version="1.0" encoding="UTF-8" standalone="no" ?>
<!DOCTYPE svg PUBLIC "-//W3C//DTD SVG 1.1//EN" "http://www.w3.org/Graphics/SVG/1.1/DTD/svg11.dtd">
<svg xmlns="http://www.w3.org/2000/svg" xmlns:xlink="http://www.w3.org/1999/xlink" version="1.1" width="1200" height="628" viewBox="100 28.5 1200 628" xml:space="preserve">
<desc>Created with Fabric.js 5.2.4</desc>
<defs>
</defs>
<rect x="0" y="0" width="100%" height="100%" fill="transparent"></rect>
<g transform="matrix(1 0 0 1 600 314)" id="ba3a3a5e-cce6-4a56-b980-af16a7e325f6"  >
<rect style="stroke: none; stroke-width: 1; stroke-dasharray: none; stroke-linecap: butt; stroke-dashoffset: 0; stroke-linejoin: miter; stroke-miterlimit: 4; fill: rgb(255,255,255); fill-rule: nonzero; opacity: 1; visibility: hidden;" vector-effect="non-scaling-stroke"  x="-600" y="-314" rx="0" ry="0" width="1200" height="628" />
</g>
<g transform="matrix(Infinity NaN NaN Infinity 0 0)" id="50be73fa-652a-4080-8dcf-5b05d56a3b3c"  >
</g>
<g transform="matrix(3.36 0 0 3.36 269.13 168.2)"  >
<g style="" vector-effect="non-scaling-stroke"   >
		<g transform="matrix(0.01 0 0 -0.01 1.95 0)" id="svg_2"  >
<path style="stroke: none; stroke-width: 1; stroke-dasharray: none; stroke-linecap: butt; stroke-dashoffset: 0; stroke-linejoin: miter; stroke-miterlimit: 4; fill: rgb(27,24,26); fill-rule: nonzero; opacity: 1;" vector-effect="non-scaling-stroke"  transform=" translate(-4664.88, -2385.94)" d="M 5105 4379 C 5083 4375 5029 4367 4985 4361 C 4901 4350 4793 4323 4675 4284 C 4252 4143 3892 3865 3629 3475 C 3568 3386 3577 3393 3455 3346 C 3293 3283 3149 3198 3009 3082 C 2956 3038 2904 2997 2892 2991 C 2863 2975 1957 2975 1927 2991 C 1915 2997 1884 3024 1859 3050 C 1644 3272 1300 3194 1202 2901 C 1175 2821 1175 2773 1200 2691 C 1227 2607 1249 2572 1315 2512 C 1403 2432 1446 2415 1570 2415 C 1665 2415 1680 2418 1733 2443 C 1765 2459 1812 2493 1838 2519 C 1864 2545 1896 2574 1910 2583 C 1933 2598 2095 2599 3705 2600 C 4679 2601 5550 2601 5643 2600 L 5810 2600 L 5884 2531 C 5993 2431 6030 2415 6161 2415 C 6261 2415 6269 2417 6334 2449 C 6472 2520 6545 2642 6545 2800 C 6544 2874 6540 2894 6514 2950 C 6425 3141 6215 3224 6015 3149 C 5975 3134 5936 3107 5880 3054 L 5800 2980 L 4913 2980 C 4416 2980 4019 2984 4011 2989 C 3963 3020 4101 3243 4279 3421 C 4434 3577 4588 3678 4775 3747 C 4965 3818 4981 3821 5143 3832 C 5333 3845 5618 3832 5665 3808 C 5682 3799 5723 3785 5758 3776 C 5842 3755 6007 3676 6111 3607 C 6328 3464 6486 3284 6623 3024 C 6682 2912 6693 2904 6803 2888 C 6882 2877 7018 2827 7112 2774 C 7321 2656 7485 2448 7568 2197 C 7593 2119 7595 2106 7595 1915 C 7595 1731 7593 1709 7571 1645 C 7507 1454 7381 1259 7255 1157 C 7074 1010 6916 946 6703 930 C 6541 918 4089 918 3917 930 C 3738 942 3593 992 3442 1095 C 3335 1167 3288 1213 3292 1242 L 3295 1265 L 4535 1268 C 5217 1269 5785 1268 5798 1265 C 5811 1262 5842 1237 5867 1209 C 5928 1143 5996 1103 6081 1083 C 6212 1051 6342 1092 6441 1197 C 6515 1275 6543 1343 6544 1449 C 6545 1518 6540 1548 6521 1599 C 6488 1686 6412 1767 6328 1806 C 6271 1831 6254 1834 6160 1835 C 6063 1835 6050 1832 5995 1805 C 5960 1788 5911 1751 5879 1717 C 5847 1684 5809 1655 5790 1650 C 5770 1644 5022 1641 3862 1641 C 2324 1641 1961 1643 1936 1654 C 1919 1661 1879 1693 1847 1724 C 1814 1757 1764 1793 1732 1808 C 1682 1832 1663 1835 1570 1834 C 1456 1834 1417 1822 1332 1760 C 1254 1704 1181 1558 1180 1459 C 1180 1368 1244 1234 1321 1163 C 1396 1095 1535 1059 1642 1079 C 1723 1095 1779 1127 1862 1206 L 1928 1270 L 2258 1270 L 2588 1270 L 2624 1228 C 2644 1205 2660 1183 2660 1178 C 2660 1151 2778 985 2876 875 C 2980 756 3207 591 3358 524 C 3484 467 3637 422 3775 398 C 3893 379 6717 379 6835 398 C 7003 426 7158 477 7307 551 C 7425 611 7630 760 7711 846 C 7813 954 7919 1108 7985 1244 C 8051 1380 8120 1586 8120 1649 C 8120 1669 8127 1710 8135 1740 C 8154 1812 8155 2019 8136 2086 C 8128 2113 8120 2162 8116 2195 C 8109 2275 8048 2463 7993 2577 C 7911 2746 7766 2941 7638 3052 C 7487 3184 7351 3268 7160 3345 L 7035 3395 L 6984 3472 C 6824 3714 6584 3950 6360 4087 C 6193 4189 5980 4282 5850 4311 C 5825 4317 5785 4328 5760 4335 C 5735 4343 5679 4354 5635 4360 C 5591 4365 5526 4374 5490 4380 C 5413 4391 5162 4391 5105 4379 z" stroke-linecap="round" />
</g>
		<g transform="matrix(0.01 0 0 -0.01 -6.01 1.46)" id="svg_3"  >
<path style="stroke: none; stroke-width: 1; stroke-dasharray: none; stroke-linecap: butt; stroke-dashoffset: 0; stroke-linejoin: miter; stroke-miterlimit: 4; fill: rgb(27,24,26); fill-rule: nonzero; opacity: 1;" vector-effect="non-scaling-stroke"  transform=" translate(-3094.43, -2129.75)" d="M 679 2492 C 549 2439 483 2369 434 2236 C 403 2151 404 2114 436 2017 C 478 1890 548 1816 673 1767 C 819 1709 961 1744 1088 1871 L 1157 1940 L 3100 1940 L 5043 1940 L 5089 1893 C 5163 1817 5197 1793 5271 1765 C 5329 1742 5353 1739 5408 1742 C 5592 1755 5742 1882 5770 2052 C 5789 2162 5772 2257 5718 2336 C 5644 2446 5520 2513 5390 2514 C 5324 2514 5306 2510 5240 2478 C 5186 2451 5147 2423 5102 2376 L 5039 2310 L 3109 2310 C 1775 2310 1173 2313 1159 2321 C 1148 2326 1111 2359 1077 2393 C 1029 2441 997 2463 938 2488 C 839 2529 773 2530 679 2492 z" stroke-linecap="round" />
</g>
</g>
</g>
</svg>