<?xml version="1.0" standalone="no"?>
<!DOCTYPE svg PUBLIC "-//W3C//DTD SVG 20010904//EN"
 "http://www.w3.org/TR/2001/REC-SVG-20010904/DTD/svg10.dtd">
<svg version="1.0" xmlns="http://www.w3.org/2000/svg"
 width="260.000000pt" height="260.000000pt" viewBox="0 0 260.000000 260.000000"
 preserveAspectRatio="xMidYMid meet">
<metadata>
Created by potrace 1.14, written by Peter Selinger 2001-2017
</metadata>
<g transform="translate(0.000000,260.000000) scale(0.100000,-0.100000)"
fill="#000000" stroke="none">
<path d="M104 2299 c6 -89 31 -600 39 -812 2 -54 0 -100 -4 -103 -5 -3 -9 2
-9 10 0 9 -6 16 -14 16 -18 0 -23 23 -32 140 -10 130 -22 166 -25 75 -2 -54
-4 -40 -9 60 -19 339 -41 681 -45 690 -11 30 -2 -344 15 -620 11 -176 20 -335
20 -354 0 -33 -1 -34 -14 -15 -8 10 -17 16 -20 13 -4 -3 -5 -70 -4 -148 l3
-142 38 48 c20 26 61 74 90 106 51 56 54 57 116 64 l63 6 -17 -26 c-14 -21
-21 -25 -35 -17 -10 6 -25 10 -32 10 -20 0 -230 -277 -226 -298 2 -12 13 -3
38 33 26 38 149 203 165 223 2 2 12 -2 24 -9 20 -13 20 -14 -16 -79 -20 -36
-60 -101 -88 -145 -66 -102 -78 -125 -66 -125 5 0 29 32 53 70 24 39 70 112
104 163 52 79 63 92 85 89 13 -2 25 -5 27 -6 1 -2 -59 -128 -134 -280 -74
-153 -133 -281 -130 -284 3 -3 8 -3 11 0 3 2 64 124 136 269 72 145 138 272
146 282 19 20 68 24 60 5 -103 -258 -187 -478 -187 -491 0 -35 37 41 105 217
111 286 109 282 140 290 15 4 30 5 33 2 4 -5 -98 -391 -163 -616 -19 -64 -28
-106 -21 -99 9 9 90 271 156 504 34 121 70 232 81 247 20 29 24 43 10 34 -5
-4 -7 3 -4 14 5 17 14 20 66 20 l60 0 -8 -142 c-11 -205 -14 -255 -20 -328 -4
-36 -15 -173 -26 -305 -11 -132 -23 -243 -27 -247 -4 -3 -37 -8 -75 -10 -62
-3 -67 -1 -67 17 0 12 22 144 49 295 76 421 122 702 116 708 -12 12 -19 -16
-56 -235 -31 -186 -117 -670 -135 -760 -3 -16 -13 -24 -37 -28 -46 -7 -321
-23 -327 -18 -2 2 1 16 7 31 7 15 36 87 66 159 30 73 60 140 67 148 21 25 6
26 -27 2 -16 -12 -28 -27 -26 -33 2 -7 -17 -65 -42 -130 -69 -179 -71 -184
-100 -184 -31 0 -35 -35 -5 -43 20 -5 20 -6 4 -47 -25 -62 -8 -60 19 2 l25 55
63 7 c35 3 121 9 190 12 l126 7 -17 -79 c-27 -126 -33 -187 -18 -182 8 3 20
52 32 130 l19 126 30 6 c16 3 52 6 79 6 l49 0 -7 -135 c-5 -99 -4 -135 4 -135
13 0 13 -7 21 155 l6 120 69 8 c41 4 74 3 79 -2 5 -5 12 -71 15 -145 4 -124 6
-136 24 -136 16 0 17 5 12 38 -3 20 -6 84 -7 142 l-2 105 65 11 c36 7 68 12
73 13 4 1 7 6 7 12 0 7 -23 9 -73 4 l-74 -7 -6 68 c-4 38 -7 134 -7 213 0 126
2 142 16 137 26 -10 65 5 74 28 8 20 8 20 13 -4 4 -14 15 -99 27 -190 11 -91
25 -181 30 -200 5 -19 16 -91 25 -160 9 -69 18 -144 22 -168 3 -26 10 -42 19
-42 19 0 18 13 -7 163 -13 76 -18 131 -13 137 5 4 38 10 74 12 l65 3 13 -40
c8 -22 23 -76 33 -120 36 -149 39 -155 58 -155 17 0 16 9 -14 118 -18 64 -38
130 -44 145 -19 50 -16 54 55 62 50 5 69 4 79 -7 11 -12 61 -145 100 -265 12
-40 21 -53 36 -53 10 0 19 2 19 5 0 2 -24 66 -54 142 -78 200 -77 179 -4 186
35 3 66 2 71 -2 4 -4 41 -79 82 -166 41 -87 77 -160 79 -162 2 -3 11 -3 19 -1
11 2 -4 40 -59 153 -41 82 -76 157 -79 166 -5 14 5 18 57 23 76 9 63 22 182
-187 67 -118 94 -157 108 -157 19 0 19 0 0 33 -10 17 -56 93 -101 168 -44 76
-81 140 -81 143 0 3 29 6 65 6 75 0 61 14 208 -205 67 -100 101 -141 116 -143
20 -3 15 7 -33 75 -30 43 -87 124 -126 181 l-71 102 68 0 68 -1 140 -179 c88
-113 147 -179 158 -179 20 -1 1 26 -173 239 -47 58 -89 111 -94 118 -5 9 8 12
58 12 l65 0 154 -173 c173 -194 180 -200 202 -195 11 2 -35 60 -149 188 -176
198 -176 198 -91 199 38 1 46 -5 177 -136 99 -99 138 -132 138 -118 0 13 -45
65 -115 135 -105 105 -113 116 -93 122 60 17 83 9 146 -48 68 -61 86 -52 22
11 -22 21 -40 43 -40 47 0 4 18 8 40 8 37 0 40 2 40 28 0 25 -29 52 -221 213
-122 101 -231 192 -243 201 -20 16 -18 17 35 4 48 -11 80 -31 205 -128 225
-173 224 -172 224 -156 0 8 -55 57 -122 108 -68 51 -127 96 -131 100 -5 5 11
2 35 -5 23 -8 54 -16 68 -19 14 -3 53 -26 87 -51 39 -28 63 -40 63 -31 0 7
-25 32 -55 55 -41 31 -55 48 -55 67 0 21 3 23 18 15 32 -18 57 -40 45 -41 -6
0 -15 4 -18 10 -3 5 -12 10 -18 10 -7 0 -1 -9 13 -20 17 -13 27 -15 32 -7 5 8
11 7 22 -2 15 -12 16 12 16 256 l0 270 -40 27 c-51 34 -51 42 0 16 33 -17 40
-18 40 -5 0 16 -52 47 -90 52 -65 8 -65 9 -63 44 2 19 12 135 23 259 12 124
30 320 40 435 11 116 20 225 20 243 0 54 -18 35 -24 -25 -3 -32 -12 -128 -21
-213 -8 -85 -31 -319 -51 -520 -19 -201 -37 -367 -40 -369 -7 -8 -4 39 16 254
18 185 58 628 76 833 4 47 3 72 -4 72 -13 0 -19 -32 -27 -135 -7 -100 -26
-215 -35 -215 -4 0 -5 -19 -3 -42 2 -22 0 -44 -6 -48 -7 -4 -8 -17 -1 -39 8
-31 6 -121 -6 -178 -4 -21 -5 -20 -36 10 -20 20 -33 27 -35 20 -3 -9 -10 -10
-22 -3 -12 6 -26 4 -44 -5 -14 -7 -28 -11 -31 -7 -3 3 -6 0 -6 -6 0 -16 18
-24 23 -10 3 10 7 10 18 1 8 -6 32 -14 54 -18 71 -12 75 -15 75 -45 0 -16 -5
-41 -11 -57 -6 -15 -11 -49 -10 -75 0 -59 1 -59 -113 -35 -37 8 -66 11 -66 7
0 -15 26 -30 52 -30 24 0 88 -24 88 -33 0 -5 -55 0 -91 9 -19 4 -41 8 -49 9
-29 2 -39 16 -35 43 3 15 15 146 26 292 11 146 26 335 33 420 7 85 11 158 9
163 -14 25 -21 -17 -37 -215 -26 -322 -73 -819 -75 -780 0 19 8 133 19 255 10
122 26 312 35 422 8 110 18 229 21 264 5 50 3 62 -8 59 -9 -3 -16 -49 -25
-169 -15 -205 -52 -611 -60 -662 -5 -35 -8 -38 -31 -32 -22 5 -24 4 -12 -10
18 -22 5 -31 -25 -17 -14 7 -35 12 -45 12 -13 0 -20 7 -20 20 0 11 4 20 9 20
6 0 6 12 1 31 -6 19 -4 107 5 233 8 110 17 239 19 286 3 47 8 131 12 188 4 64
3 102 -4 102 -13 0 -22 -50 -22 -126 0 -39 -5 -68 -13 -76 -9 -9 -16 -53 -21
-123 -16 -264 -37 -553 -42 -582 -4 -25 -10 -33 -26 -33 -11 0 -36 -10 -55
-21 -37 -23 -152 -42 -167 -28 -6 5 -28 9 -50 9 -30 0 -37 -3 -26 -10 8 -5 29
-10 47 -10 17 0 35 -4 38 -10 11 -18 103 -11 145 10 23 12 41 16 45 10 3 -5
-6 -12 -20 -16 -13 -3 -23 -9 -20 -13 7 -13 -458 -21 -1055 -19 -311 0 -550 3
-532 5 17 2 32 8 32 13 0 19 -68 28 -86 11 -5 -6 -10 35 -12 112 -2 67 -14
295 -25 506 -17 300 -25 385 -36 389 -11 4 -12 -13 -7 -89z m-37 -871 c-2 -18
-4 -6 -4 27 0 33 2 48 4 33 2 -15 2 -42 0 -60z m1860 -40 c-3 -7 -5 -2 -5 12
0 14 2 19 5 13 2 -7 2 -19 0 -25z m573 -43 c16 -19 3 -19 -30 0 -24 13 -24 14
-4 15 12 0 27 -7 34 -15z m-2423 -42 c-3 -10 -5 -4 -5 12 0 17 2 24 5 18 2 -7
2 -21 0 -30z m303 16 c0 -25 -22 -49 -45 -49 -29 0 -31 7 -9 38 15 22 54 31
54 11z m71 -23 c-8 -19 -18 -26 -36 -26 -14 0 -25 3 -25 6 0 13 22 44 28 40 5
-3 14 -1 22 4 20 12 22 7 11 -24z m88 18 c-12 -15 -59 -38 -64 -32 -2 2 1 13
6 26 6 16 16 22 40 22 28 0 30 -2 18 -16z m240 -281 l1 -102 -41 -11 c-23 -6
-42 -10 -43 -8 -2 2 3 89 10 193 7 105 13 195 13 202 1 6 11 13 24 15 21 3 22
-1 28 -92 4 -52 7 -141 8 -197z m75 230 c3 -38 12 -106 19 -153 14 -84 9 -120
-15 -120 -6 0 -19 -7 -29 -16 -16 -15 -18 -12 -23 48 -3 35 -7 118 -8 186 l-3
122 26 0 c25 0 26 -3 33 -67z m78 -22 c11 -41 16 -79 13 -85 -3 -6 -14 -26
-24 -45 l-18 -34 -16 106 c-22 137 -22 139 5 135 18 -2 25 -15 40 -77z m46 57
c7 10 11 8 15 -9 4 -14 0 -34 -10 -48 -15 -24 -16 -24 -23 -5 -4 10 -11 35
-15 54 -7 33 -6 34 9 15 12 -16 17 -17 24 -7z m59 2 c4 -16 9 -18 19 -9 7 6
23 9 35 7 19 -2 24 -10 26 -47 2 -23 -2 -50 -7 -60 -8 -13 -10 -12 -11 9 -1
14 -1 32 0 40 0 10 -1 11 -5 3 -3 -7 -19 -13 -35 -13 -23 0 -30 5 -35 28 -3
15 -8 35 -11 45 -2 9 1 17 7 17 7 0 14 -9 17 -20z m550 -10 c29 -14 52 -29 53
-33 0 -17 -34 -19 -66 -3 -39 18 -192 24 -164 6 8 -5 30 -10 48 -10 17 0 32
-4 32 -8 0 -5 -21 -5 -47 0 -124 22 -129 22 -147 -3 -12 -17 -16 -19 -16 -7 0
34 30 43 164 48 l131 5 -30 18 c-39 23 -23 18 42 -13z m320 -36 c-7 -7 -37 7
-37 17 0 6 9 5 21 -1 11 -7 19 -14 16 -16z m-240 -26 c-3 -8 -6 -5 -6 6 -1 11
2 17 5 13 3 -3 4 -12 1 -19z m720 -85 c-2 -16 -4 -3 -4 27 0 30 2 43 4 28 2
-16 2 -40 0 -55z m-1061 48 c-4 -5 -1 -11 4 -13 6 -2 -4 -12 -21 -22 -33 -19
-33 -11 -1 27 16 18 27 23 18 8z m509 -31 c-10 -11 -21 -18 -23 -15 -3 3 3 12
14 20 27 20 30 18 9 -5z m-780 -10 c-7 -23 4 -26 25 -7 12 10 12 9 1 -5 -7
-10 -19 -18 -25 -18 -7 0 -23 -12 -37 -26 -26 -29 -22 -30 36 -9 14 5 11 -1
-10 -19 -21 -18 -32 -22 -37 -13 -6 8 -17 2 -37 -21 -16 -19 -42 -40 -57 -48
l-28 -15 20 22 c10 13 36 38 56 57 20 18 50 53 65 78 31 48 38 54 28 24z
m1090 10 c3 -6 -1 -7 -9 -4 -18 7 -21 14 -7 14 6 0 13 -4 16 -10z m-425 -36
c0 -8 -6 -14 -14 -14 -9 0 -12 7 -9 20 6 22 23 18 23 -6z m526 11 c18 -13 18
-14 -4 -8 -12 3 -25 9 -28 14 -8 14 10 11 32 -6z m-833 -16 c-4 -12 -11 -18
-20 -15 -8 3 -21 6 -28 6 -7 0 -15 7 -19 15 -4 12 3 15 33 15 35 0 38 -2 34
-21z m248 14 c-11 -5 -11 -7 0 -15 10 -7 2 -8 -23 -5 -20 3 -38 2 -40 -2 -4
-11 -128 -20 -128 -9 0 4 13 8 29 8 17 0 33 5 37 11 4 8 9 8 17 0 6 -6 15 -7
21 -2 10 9 50 17 86 19 12 0 12 -1 1 -5z m-350 -34 c13 -25 -1 -45 -26 -36
-22 9 -31 37 -14 48 21 13 27 11 40 -12z m1149 -40 c15 -28 5 -23 -15 7 -9 15
-12 23 -6 20 6 -4 16 -16 21 -27z m-158 6 c3 -3 -18 -30 -48 -60 -53 -55 -78
-62 -87 -27 -3 12 -9 6 -20 -19 -25 -56 -40 -64 -77 -42 -29 17 -33 17 -60 1
-27 -15 -30 -15 -38 -1 -5 8 -40 26 -78 40 l-69 24 53 -7 c42 -5 59 -2 87 15
22 13 37 16 41 9 4 -7 10 -6 15 3 7 11 14 8 30 -13 l20 -27 52 20 c30 12 64
35 80 55 22 26 36 34 61 34 18 0 35 -2 38 -5z m-630 -45 c14 0 18 -8 18 -35 0
-33 -2 -35 -32 -35 -30 0 -31 0 -13 20 17 19 17 21 0 47 -10 16 -12 22 -4 16
7 -7 21 -13 31 -13z m-198 -15 c14 -14 23 -25 19 -25 -3 0 -18 11 -35 25 -16
14 -25 25 -19 25 5 0 21 -11 35 -25z m1037 -22 c13 -16 12 -17 -3 -4 -17 13
-22 21 -14 21 2 0 10 -8 17 -17z m-148 -27 c30 -13 58 -30 62 -37 6 -9 3 -11
-10 -6 -9 4 -23 3 -30 -3 -9 -8 -15 -8 -20 0 -3 5 -16 11 -28 11 -13 1 -8 4
13 8 l35 7 -45 21 c-62 29 -43 29 23 -1z m-1514 -23 c-13 -16 -27 -32 -31 -37
-5 -6 -8 -5 -8 2 0 10 49 62 59 62 3 0 -6 -12 -20 -27z m1411 15 c0 -19 51
-79 76 -88 13 -5 24 -14 24 -20 0 -17 -59 21 -82 53 -12 17 -28 27 -45 27 -25
0 -26 0 -8 20 20 22 35 26 35 8z m-848 -128 c37 -63 68 -121 68 -129 0 -8 9
-24 19 -35 10 -12 53 -77 95 -146 l76 -125 -61 -7 c-34 -4 -67 -4 -72 -1 -9 5
-254 500 -270 546 -6 16 -2 18 35 15 l41 -3 69 -115z m41 91 c14 -5 44 -37 67
-70 39 -55 60 -74 60 -53 0 4 -15 30 -34 58 l-34 51 46 -15 c26 -8 62 -29 79
-45 34 -32 56 -31 32 0 -13 17 -12 17 6 2 11 -9 27 -19 35 -21 16 -5 -51 -28
-82 -28 -32 0 -68 -23 -68 -43 0 -18 -1 -18 -18 4 -13 15 -25 20 -37 16 -13
-6 -15 -10 -6 -21 6 -7 8 -16 5 -19 -6 -6 -124 184 -124 199 0 7 34 0 73 -15z
m-443 -1 c-8 -5 -19 -10 -25 -10 -5 0 -3 5 5 10 8 5 20 10 25 10 6 0 3 -5 -5
-10z m267 -67 c20 -43 78 -165 129 -272 52 -106 91 -197 88 -202 -3 -5 -32 -9
-64 -9 -46 0 -61 4 -68 18 -15 27 -192 501 -192 512 0 11 35 28 58 29 7 1 29
-34 49 -76z m-37 -221 c51 -139 89 -256 86 -259 -4 -4 -33 -9 -65 -11 -42 -3
-61 0 -67 9 -11 16 -143 512 -138 518 10 11 70 17 80 7 7 -6 53 -125 104 -264z
m-450 264 c0 -2 -9 -6 -20 -9 -11 -3 -18 -1 -14 4 5 9 34 13 34 5z m1638 -36
c-3 -9 -9 -8 -21 4 -9 10 -14 22 -11 28 8 13 38 -16 32 -32z m-1387 -22 c31
-117 120 -481 117 -483 -9 -9 -142 -9 -145 0 -9 28 -63 423 -63 460 0 38 3 45
28 53 45 17 51 14 63 -30z m-331 17 c-7 -9 -15 -13 -17 -11 -7 7 7 26 19 26 6
0 6 -6 -2 -15z m160 -10 c29 -15 38 -34 23 -48 -3 -4 -15 1 -25 10 -17 15 -22
15 -41 4 -21 -13 -21 -13 -5 6 14 15 15 22 6 31 -18 18 6 16 42 -3z m1268 -17
c97 -77 451 -374 451 -379 1 -3 -24 -7 -55 -8 l-55 -2 -72 69 c-40 37 -133
122 -207 189 -167 148 -174 157 -109 126 28 -14 53 -22 55 -20 7 7 -46 44 -71
50 -19 4 -19 5 1 6 12 0 40 -14 62 -31z m-1354 13 c9 -14 -29 -42 -48 -35 -23
9 -20 23 7 34 29 12 35 12 41 1z m1782 -22 c3 -6 -5 -3 -20 6 -14 10 -26 19
-26 22 0 7 39 -17 46 -28z m-465 -67 c52 -48 150 -136 217 -197 67 -60 122
-113 122 -117 0 -4 -26 -8 -57 -8 l-57 0 -200 202 c-111 111 -193 195 -183
188 15 -11 17 -11 11 4 -5 12 0 16 22 16 22 -1 52 -21 125 -88z m-13 -124
c130 -130 194 -199 184 -203 -7 -3 -33 -5 -56 -5 -41 0 -44 2 -186 156 -167
180 -191 213 -169 237 8 9 17 15 21 14 4 -1 96 -91 206 -199z m-1333 146 l32
6 7 -221 c3 -122 4 -224 2 -227 -3 -2 -37 -7 -76 -10 l-70 -5 0 44 c0 24 7
107 15 184 8 77 15 163 15 191 0 58 6 69 28 48 10 -11 25 -14 47 -10z m777
-59 c3 -33 9 -41 43 -61 23 -13 49 -20 62 -17 25 6 27 4 123 -132 l71 -100
-63 -7 c-34 -4 -66 -4 -70 0 -4 4 -45 71 -92 150 -66 109 -86 151 -86 179 0
47 8 39 12 -12z m86 -13 c2 -7 -2 -10 -12 -6 -9 3 -16 11 -16 16 0 13 23 5 28
-10z m385 -132 c117 -127 134 -150 114 -150 -14 0 -38 -3 -55 -6 -27 -6 -36
-1 -70 37 -64 70 -192 231 -192 241 0 4 9 8 19 8 11 0 23 5 26 10 3 6 9 10 13
10 4 0 69 -67 145 -150z m-120 -25 l105 -130 -51 -8 c-28 -4 -57 -5 -63 -3
-15 6 -165 215 -172 238 -5 19 29 39 59 35 9 -1 64 -60 122 -132z"/>
<path d="M1272 1089 c2 -7 10 -15 17 -17 8 -3 12 1 9 9 -2 7 -10 15 -17 17 -8
3 -12 -1 -9 -9z"/>
<path d="M2205 1010 c3 -5 13 -10 21 -10 8 0 14 5 14 10 0 6 -9 10 -21 10 -11
0 -17 -4 -14 -10z"/>
<path d="M1595 426 c10 -14 22 -26 27 -26 13 0 -15 43 -31 48 -9 3 -7 -5 4
-22z"/>
<path d="M2020 785 c13 -14 28 -25 33 -25 6 0 0 11 -13 25 -13 14 -28 25 -33
25 -6 0 0 -11 13 -25z"/>
<path d="M2010 745 c7 -8 17 -15 22 -15 6 0 5 7 -2 15 -7 8 -17 15 -22 15 -6
0 -5 -7 2 -15z"/>
<path d="M853 2309 c-61 -11 -114 -42 -161 -93 -23 -25 -60 -55 -81 -66 -22
-11 -42 -24 -46 -30 -10 -16 -137 -12 -159 5 -27 20 -59 19 -79 -3 -50 -55 19
-132 79 -87 15 12 64 14 259 14 l240 1 -25 -20 c-23 -18 -42 -20 -296 -20
-229 0 -273 2 -284 15 -16 20 -64 19 -84 -1 -25 -25 -20 -71 10 -91 25 -16 28
-16 56 0 16 9 39 17 51 17 l21 0 -22 -16 c-27 -19 -29 -64 -4 -87 21 -19 63
-22 79 -6 6 6 32 13 56 14 42 3 47 0 82 -42 65 -78 84 -83 360 -83 274 0 293
5 357 79 90 106 63 266 -57 337 -26 15 -67 48 -91 75 -68 72 -166 105 -261 88z
m97 -90 c56 -12 111 -53 135 -99 8 -15 26 -31 41 -34 117 -30 141 -185 37
-253 -24 -16 -52 -18 -258 -18 -187 0 -235 3 -255 15 -23 14 -12 15 145 21
136 6 174 4 192 -7 33 -21 70 -17 87 8 21 30 20 47 -6 75 -25 27 -46 29 -74 8
-10 -8 -29 -15 -41 -15 -22 0 -22 0 2 25 31 31 31 49 0 80 l-24 25 23 0 c13 0
29 -7 36 -15 28 -34 100 -1 100 45 0 26 -34 60 -62 60 -12 0 -29 -7 -38 -15
-14 -13 -42 -15 -146 -13 l-129 3 39 43 c26 28 54 47 85 56 58 18 51 18 111 5z
m-66 -284 c18 -13 -8 -15 -225 -15 -199 1 -248 3 -263 15 -18 13 8 15 225 15
199 -1 248 -3 263 -15z"/>
<path d="M2370 1936 c0 -2 8 -10 18 -17 15 -13 16 -12 3 4 -13 16 -21 21 -21
13z"/>
<path d="M2335 1880 c21 -22 41 -37 44 -35 6 7 -60 75 -73 75 -6 0 7 -18 29
-40z"/>
<path d="M2317 1854 l28 -26 -25 7 c-59 16 -70 17 -70 7 0 -16 34 -46 38 -34
4 12 38 4 69 -16 12 -7 28 -12 34 -10 12 4 -76 98 -92 98 -6 0 3 -12 18 -26z"/>
<path d="M2530 1662 c0 -11 30 -37 53 -45 27 -10 20 7 -13 31 -32 24 -40 27
-40 14z"/>
<path d="M265 1628 c-3 -8 -4 -57 -3 -109 2 -76 6 -94 18 -94 9 0 17 13 20 34
l5 34 17 -36 c16 -34 48 -51 48 -27 0 6 8 5 20 -2 17 -11 22 -10 30 2 7 11 12
12 18 3 10 -16 324 -15 334 1 4 6 8 23 8 39 0 15 5 27 10 27 6 0 10 -10 10
-23 0 -30 24 -62 38 -53 7 4 12 34 11 74 0 37 0 76 1 87 2 40 -33 54 -133 52
l-92 -2 -3 -88 c-2 -75 -5 -88 -18 -83 -9 3 -20 6 -24 6 -5 0 -10 37 -12 83
-2 65 -6 82 -18 82 -12 0 -16 -18 -18 -88 -2 -75 -5 -88 -18 -83 -9 3 -20 6
-25 6 -5 0 -9 36 -9 79 0 59 -4 80 -14 84 -8 3 -20 -1 -27 -9 -10 -12 -13 -12
-24 3 -11 14 -16 15 -28 5 -10 -9 -17 -10 -22 -2 -12 19 -25 10 -43 -27 l-17
-36 -5 33 c-5 35 -26 51 -35 28z m114 -100 l-1 -83 -19 41 c-18 40 -18 43 -1
83 9 22 18 41 20 41 1 0 2 -37 1 -82z m349 -63 c-2 -2 -15 -1 -30 2 -35 7 -36
26 -2 42 30 13 27 35 -4 39 -33 5 -29 40 6 44 27 3 27 2 30 -61 2 -35 2 -65 0
-66z m77 105 c0 -7 -6 -15 -12 -17 -8 -3 -13 4 -13 17 0 13 5 20 13 18 6 -3
12 -11 12 -18z"/>
<path d="M942 1624 c-20 -13 -22 -24 -22 -93 0 -84 14 -111 57 -111 23 0 53
29 53 53 0 24 -22 32 -36 13 -20 -28 -34 -9 -34 44 0 49 15 75 26 46 10 -27
44 -20 44 8 0 24 -32 56 -55 56 -6 0 -21 -7 -33 -16z"/>
<path d="M1045 1628 c-3 -8 -4 -57 -3 -109 l3 -94 33 -3 c18 -2 39 1 45 7 8 6
18 6 27 1 26 -17 58 -11 77 14 l19 24 21 -24 c26 -29 64 -31 87 -5 23 25 20
196 -4 196 -12 0 -16 -17 -18 -82 -2 -65 -6 -83 -17 -83 -12 0 -15 16 -15 73
0 41 -5 78 -11 84 -16 16 -39 5 -39 -18 0 -16 -3 -15 -25 6 -29 30 -45 31 -79
4 -24 -19 -26 -27 -26 -89 0 -63 -2 -68 -20 -63 -17 4 -20 15 -22 86 -2 53 -7
82 -15 85 -7 2 -15 -3 -18 -10z m153 -101 c2 -46 0 -57 -13 -57 -12 0 -15 13
-15 61 0 81 24 77 28 -4z"/>
<path d="M1392 1632 c-9 -6 -12 -35 -10 -108 l3 -99 37 -3 c58 -5 78 22 78
106 0 39 -5 76 -13 85 -14 20 -76 32 -95 19z m63 -102 c0 -34 -5 -55 -12 -57
-10 -4 -13 12 -13 57 0 45 3 61 13 58 7 -3 12 -24 12 -58z"/>
<path d="M2577 1584 c-8 -8 3 -34 14 -34 5 0 9 9 9 20 0 19 -11 26 -23 14z"/>
<path d="M350 1390 c20 -13 67 -13 75 0 4 6 -12 10 -42 10 -35 0 -44 -3 -33
-10z"/>
<path d="M773 1393 c-37 -5 -45 -23 -10 -23 49 0 127 13 127 21 0 9 -55 10
-117 2z"/>
<path d="M610 1380 c8 -5 24 -9 35 -9 l20 0 -20 9 c-11 5 -27 9 -35 9 -13 1
-13 0 0 -9z"/>
<path d="M1335 1370 c3 -5 12 -7 20 -3 21 7 19 13 -6 13 -11 0 -18 -4 -14 -10z"/>
<path d="M50 1139 c-13 -24 -4 -41 10 -19 10 16 13 40 5 40 -2 0 -9 -9 -15
-21z"/>
<path d="M2202 818 c2 -6 15 -18 29 -27 l24 -15 -24 27 c-26 29 -35 34 -29 15z"/>
<path d="M145 658 c-89 -14 -97 -32 -10 -23 74 7 85 11 85 26 0 5 -3 8 -7 8
-5 -1 -35 -6 -68 -11z"/>
<path d="M291 425 c-24 -76 -25 -83 -12 -69 11 11 43 125 37 132 -3 2 -14 -26
-25 -63z"/>
<path d="M2556 375 c4 -9 14 -20 24 -25 15 -8 17 -5 17 18 0 15 -2 21 -4 15
-3 -9 -10 -10 -24 -3 -15 9 -17 8 -13 -5z"/>
<path d="M1850 295 c0 -2 10 -10 23 -16 20 -11 21 -11 8 4 -13 16 -31 23 -31
12z"/>
<path d="M238 225 c-3 -5 -15 -44 -27 -85 -11 -41 -25 -90 -30 -107 -7 -25 -6
-33 3 -33 13 0 69 190 64 218 -2 9 -6 13 -10 7z"/>
</g>
</svg>
